<svg width="20" height="20" viewBox="0 0 20 20" fill="none" xmlns="http://www.w3.org/2000/svg">
<path fill-rule="evenodd" clip-rule="evenodd" d="M10 1.66797C5.39765 1.66797 1.66669 5.39893 1.66669 10.0013C1.66669 14.6037 5.39765 18.3346 10 18.3346C14.6024 18.3346 18.3334 14.6037 18.3334 10.0013C18.3334 5.39893 14.6024 1.66797 10 1.66797ZM9.11752 6.63876C9.3621 6.87428 9.65627 6.99205 10 6.99205C10.3454 6.99365 10.6398 6.87589 10.8831 6.63876C11.1265 6.40163 11.2488 6.11816 11.25 5.78834C11.2513 5.45853 11.129 5.17526 10.8831 4.93853C10.6373 4.7018 10.3429 4.58384 10 4.58464C9.6571 4.58544 9.36294 4.7034 9.11752 4.93853C8.8721 5.17365 8.7496 5.45692 8.75002 5.78834C8.75044 6.11976 8.87294 6.40323 9.11752 6.63876ZM9.33627 15.155C9.51835 15.3303 9.7396 15.418 10 15.418C10.2608 15.4184 10.4823 15.3307 10.6644 15.155C10.8465 14.9792 10.9375 14.766 10.9375 14.5152V9.09853C10.9383 8.84856 10.8473 8.6355 10.6644 8.45936C10.4815 8.28322 10.26 8.19535 10 8.19575C9.74002 8.19615 9.51877 8.28402 9.33627 8.45936C9.15377 8.6347 9.06252 8.84775 9.06252 9.09853V14.5152C9.06294 14.7664 9.15419 14.9796 9.33627 15.155Z" fill="#C07000"/>
</svg>
