<svg width="62" height="63" viewBox="0 0 62 63" fill="none" xmlns="http://www.w3.org/2000/svg">
<path fill-rule="evenodd" clip-rule="evenodd" d="M56.1529 9.36719H5.84719C5.13189 9.36719 4.54846 9.95062 4.54846 10.6659V43.0531C4.54846 43.7684 5.13189 44.3518 5.84719 44.3518H56.153C56.8683 44.3518 57.4517 43.7684 57.4517 43.0531V10.6659C57.4516 9.95062 56.8682 9.36719 56.1529 9.36719Z" fill="#65788E"/>
<path fill-rule="evenodd" clip-rule="evenodd" d="M47.7862 14.8203H51.4805C51.909 14.8203 52.2595 15.1708 52.2595 15.5993V19.2936C52.2595 19.7221 51.9089 20.0727 51.4805 20.0727H47.7862C47.3577 20.0727 47.0072 19.7221 47.0072 19.2936V15.5993C47.0072 15.1708 47.3577 14.8203 47.7862 14.8203ZM47.7862 35.1862H51.4805C51.909 35.1862 52.2595 35.5367 52.2595 35.9652V39.6595C52.2595 40.088 51.9089 40.4385 51.4805 40.4385H47.7862C47.3577 40.4385 47.0072 40.0879 47.0072 39.6595V35.9652C47.0072 35.5367 47.3577 35.1862 47.7862 35.1862ZM47.7862 28.3975H51.4805C51.909 28.3975 52.2595 28.748 52.2595 29.1765V32.8708C52.2595 33.2993 51.9089 33.6498 51.4805 33.6498H47.7862C47.3577 33.6498 47.0072 33.2992 47.0072 32.8708V29.1765C47.0072 28.7481 47.3577 28.3975 47.7862 28.3975ZM47.7862 21.6089H51.4805C51.909 21.6089 52.2595 21.9594 52.2595 22.3879V26.0821C52.2595 26.5106 51.9089 26.8612 51.4805 26.8612H47.7862C47.3577 26.8612 47.0072 26.5106 47.0072 26.0821V22.3879C47.0072 21.9594 47.3577 21.6089 47.7862 21.6089Z" fill="#D8ECFE"/>
<path fill-rule="evenodd" clip-rule="evenodd" d="M52.2403 19.4676C52.1615 19.8141 51.8501 20.0748 51.4805 20.0748H47.7862C47.3577 20.0748 47.0072 19.7243 47.0072 19.2959V15.6017C47.0072 15.2458 47.2492 14.9436 47.5767 14.8516C47.5641 14.9069 47.5575 14.9644 47.5575 15.0233V18.7175C47.5575 19.1459 47.908 19.4964 48.3365 19.4964H52.0308C52.1034 19.4963 52.1736 19.4863 52.2403 19.4676ZM52.2403 39.8335C52.1615 40.1801 51.8501 40.4407 51.4805 40.4407H47.7862C47.3577 40.4407 47.0072 40.0902 47.0072 39.6618V35.9676C47.0072 35.6115 47.2492 35.3095 47.5767 35.2175C47.5641 35.2728 47.5575 35.3301 47.5575 35.389V39.0834C47.5575 39.5118 47.908 39.8623 48.3365 39.8623H52.0308C52.1034 39.8623 52.1736 39.8523 52.2403 39.8335ZM52.2403 33.0449C52.1615 33.3915 51.8501 33.6522 51.4805 33.6522H47.7862C47.3577 33.6522 47.0072 33.3017 47.0072 32.8732V29.1788C47.0072 28.8228 47.2492 28.5208 47.5767 28.4286C47.5641 28.4839 47.5575 28.5414 47.5575 28.6002V32.2945C47.5575 32.723 47.908 33.0735 48.3365 33.0735H52.0308C52.1034 33.0736 52.1736 33.0636 52.2403 33.0449ZM52.2403 26.2562C52.1615 26.6027 51.8501 26.8634 51.4805 26.8634H47.7862C47.3577 26.8634 47.0072 26.5129 47.0072 26.0845V22.3903C47.0072 22.0342 47.2492 21.7322 47.5767 21.64C47.5641 21.6953 47.5575 21.7527 47.5575 21.8117V25.5061C47.5575 25.9345 47.908 26.285 48.3365 26.285H52.0308C52.1034 26.285 52.1736 26.275 52.2403 26.2562Z" fill="#C4E2FF"/>
<path fill-rule="evenodd" clip-rule="evenodd" d="M10.5196 14.8203H14.2139C14.6424 14.8203 14.9929 15.1708 14.9929 15.5993V19.2936C14.9929 19.7221 14.6423 20.0727 14.2139 20.0727H10.5196C10.0911 20.0727 9.7406 19.7221 9.7406 19.2936V15.5993C9.7406 15.1708 10.0911 14.8203 10.5196 14.8203ZM10.5196 35.1862H14.2139C14.6424 35.1862 14.9929 35.5367 14.9929 35.9652V39.6595C14.9929 40.088 14.6423 40.4385 14.2139 40.4385H10.5196C10.0911 40.4385 9.7406 40.0879 9.7406 39.6595V35.9652C9.7406 35.5367 10.0911 35.1862 10.5196 35.1862ZM10.5196 28.3975H14.2139C14.6424 28.3975 14.9929 28.748 14.9929 29.1765V32.8708C14.9929 33.2993 14.6423 33.6498 14.2139 33.6498H10.5196C10.0911 33.6498 9.7406 33.2992 9.7406 32.8708V29.1765C9.7406 28.7481 10.0911 28.3975 10.5196 28.3975ZM10.5196 21.6089H14.2139C14.6424 21.6089 14.9929 21.9594 14.9929 22.3879V26.0821C14.9929 26.5106 14.6423 26.8612 14.2139 26.8612H10.5196C10.0911 26.8612 9.7406 26.5106 9.7406 26.0821V22.3879C9.7406 21.9594 10.0911 21.6089 10.5196 21.6089Z" fill="#D8ECFE"/>
<path fill-rule="evenodd" clip-rule="evenodd" d="M14.9737 19.4676C14.8949 19.8141 14.5835 20.0748 14.2139 20.0748H10.5196C10.0911 20.0748 9.7406 19.7243 9.7406 19.2959V15.6017C9.7406 15.2458 9.98256 14.9436 10.3101 14.8516C10.2975 14.9069 10.2909 14.9644 10.2909 15.0233V18.7175C10.2909 19.1459 10.6414 19.4964 11.0699 19.4964H14.7642C14.8368 19.4963 14.907 19.4863 14.9737 19.4676ZM14.9737 39.8335C14.8949 40.1801 14.5835 40.4407 14.2139 40.4407H10.5196C10.0911 40.4407 9.7406 40.0902 9.7406 39.6618V35.9676C9.7406 35.6115 9.98256 35.3095 10.3101 35.2175C10.2975 35.2728 10.2909 35.3301 10.2909 35.389V39.0834C10.2909 39.5118 10.6414 39.8623 11.0699 39.8623H14.7642C14.8368 39.8623 14.907 39.8523 14.9737 39.8335ZM14.9737 33.0449C14.8949 33.3915 14.5835 33.6522 14.2139 33.6522H10.5196C10.0911 33.6522 9.7406 33.3017 9.7406 32.8732V29.1788C9.7406 28.8228 9.98256 28.5208 10.3101 28.4286C10.2975 28.4839 10.2909 28.5414 10.2909 28.6002V32.2945C10.2909 32.723 10.6414 33.0735 11.0699 33.0735H14.7642C14.8368 33.0736 14.907 33.0636 14.9737 33.0449ZM14.9737 26.2562C14.8949 26.6027 14.5835 26.8634 14.2139 26.8634H10.5196C10.0911 26.8634 9.7406 26.5129 9.7406 26.0845V22.3903C9.7406 22.0342 9.98256 21.7322 10.3101 21.64C10.2975 21.6953 10.2909 21.7527 10.2909 21.8117V25.5061C10.2909 25.9345 10.6414 26.285 11.0699 26.285H14.7642C14.8368 26.285 14.907 26.275 14.9737 26.2562Z" fill="#C4E2FF"/>
<path fill-rule="evenodd" clip-rule="evenodd" d="M20.1851 44.3516H41.8149V1.86123C41.8149 1.14593 41.2315 0.5625 40.5162 0.5625H21.4838C20.7685 0.5625 20.1851 1.14593 20.1851 1.86123V44.3516Z" fill="#8192A5"/>
<path fill-rule="evenodd" clip-rule="evenodd" d="M25.7585 5.48438H29.4528C29.8813 5.48438 30.2318 5.83487 30.2318 6.26336V9.95768C30.2318 10.3862 29.8812 10.7367 29.4528 10.7367H25.7585C25.33 10.7367 24.9795 10.3862 24.9795 9.95768V6.26336C24.9795 5.83487 25.33 5.48438 25.7585 5.48438ZM32.5472 5.48438H36.2415C36.67 5.48438 37.0205 5.83487 37.0205 6.26336V9.95768C37.0205 10.3862 36.6699 10.7367 36.2415 10.7367H32.5472C32.1187 10.7367 31.7682 10.3862 31.7682 9.95768V6.26336C31.7682 5.83487 32.1188 5.48438 32.5472 5.48438ZM32.5472 12.273H36.2415C36.67 12.273 37.0205 12.6235 37.0205 13.0519V16.7461C37.0205 17.1746 36.6699 17.5253 36.2415 17.5253H32.5472C32.1187 17.5253 31.7682 17.1746 31.7682 16.7461V13.0519C31.7682 12.6235 32.1188 12.273 32.5472 12.273ZM32.5472 19.0617H36.2415C36.67 19.0617 37.0205 19.4122 37.0205 19.8407V23.5349C37.0205 23.9633 36.6699 24.314 36.2415 24.314H32.5472C32.1187 24.314 31.7682 23.9633 31.7682 23.5349V19.8407C31.7682 19.4122 32.1188 19.0617 32.5472 19.0617ZM25.7585 19.0617H29.4528C29.8813 19.0617 30.2318 19.4122 30.2318 19.8407V23.5349C30.2318 23.9633 29.8812 24.314 29.4528 24.314H25.7585C25.33 24.314 24.9795 23.9633 24.9795 23.5349V19.8407C24.9795 19.4122 25.33 19.0617 25.7585 19.0617ZM25.7585 12.273H29.4528C29.8813 12.273 30.2318 12.6235 30.2318 13.0519V16.7461C30.2318 17.1746 29.8812 17.5253 29.4528 17.5253H25.7585C25.33 17.5253 24.9795 17.1746 24.9795 16.7461V13.0519C24.9795 12.6235 25.33 12.273 25.7585 12.273Z" fill="#D8ECFE"/>
<path fill-rule="evenodd" clip-rule="evenodd" d="M37.0014 23.705C36.9226 24.0517 36.6112 24.3124 36.2416 24.3124H32.5473C32.1188 24.3124 31.7683 23.9619 31.7683 23.5335V19.8393C31.7683 19.4832 32.0103 19.1812 32.3378 19.089C32.3252 19.1443 32.3186 19.2017 32.3186 19.2607V22.9551C32.3186 23.3835 32.6691 23.734 33.0976 23.734H36.7919C36.8644 23.7338 36.9346 23.7237 37.0014 23.705ZM37.0014 10.1277C36.9226 10.4744 36.6112 10.7351 36.2416 10.7351H32.5473C32.1188 10.7351 31.7683 10.3846 31.7683 9.95615V6.26182C31.7683 5.90579 32.0103 5.60376 32.3378 5.51172C32.3252 5.56702 32.3186 5.62451 32.3186 5.68342V9.37775C32.3186 9.80623 32.6691 10.1567 33.0976 10.1567H36.7919C36.8644 10.1565 36.9346 10.1464 37.0014 10.1277ZM37.0014 16.9164C36.9226 17.2631 36.6112 17.5237 36.2416 17.5237H32.5473C32.1188 17.5237 31.7683 17.1732 31.7683 16.7447V13.0505C31.7683 12.6945 32.0103 12.3925 32.3378 12.3003C32.3252 12.3556 32.3186 12.413 32.3186 12.472V16.1663C32.3186 16.5948 32.6691 16.9453 33.0976 16.9453H36.7919C36.8644 16.9452 36.9346 16.9351 37.0014 16.9164ZM30.2127 10.1277C30.1339 10.4744 29.8225 10.7351 29.4529 10.7351H25.7586C25.3301 10.7351 24.9796 10.3846 24.9796 9.95615V6.26182C24.9796 5.90579 25.2216 5.60376 25.5491 5.51172C25.5365 5.56702 25.5299 5.62451 25.5299 5.68342V9.37775C25.5299 9.80623 25.8804 10.1567 26.3089 10.1567H30.0032C30.0757 10.1565 30.1459 10.1464 30.2127 10.1277ZM30.2127 16.9164C30.1339 17.2631 29.8225 17.5237 29.4529 17.5237H25.7586C25.3301 17.5237 24.9796 17.1732 24.9796 16.7447V13.0505C24.9796 12.6945 25.2216 12.3925 25.5491 12.3003C25.5365 12.3556 25.5299 12.413 25.5299 12.472V16.1663C25.5299 16.5948 25.8804 16.9453 26.3089 16.9453H30.0032C30.0757 16.9452 30.1459 16.9351 30.2127 16.9164ZM30.2127 23.705C30.1339 24.0517 29.8225 24.3124 29.4529 24.3124H25.7586C25.3301 24.3124 24.9796 23.9619 24.9796 23.5335V19.8393C24.9796 19.4832 25.2216 19.1812 25.5491 19.089C25.5365 19.1443 25.5299 19.2017 25.5299 19.2607V22.9551C25.5299 23.3835 25.8804 23.734 26.3089 23.734H30.0032C30.0757 23.7338 30.1459 23.7237 30.2127 23.705Z" fill="#C4E2FF"/>
<path fill-rule="evenodd" clip-rule="evenodd" d="M37.534 34.3192C37.534 30.7252 34.5935 27.7852 30.9997 27.7852C27.4058 27.7852 24.4656 30.7254 24.4656 34.3192V44.3513C24.8915 44.3513 37.0463 44.3514 37.534 44.3512V34.3192Z" fill="#D8ECFE"/>
<path fill-rule="evenodd" clip-rule="evenodd" d="M31.6445 27.8171C31.4323 27.7961 31.2174 27.7852 30.9999 27.7852C27.406 27.7852 24.4658 30.7254 24.4658 34.3192V44.3513H25.7549V34.319C25.7549 30.9427 28.3502 28.1435 31.6445 27.8171Z" fill="#C4E2FF"/>
<path fill-rule="evenodd" clip-rule="evenodd" d="M39.5485 58.5429L59.7179 58.5428C60.1459 58.5428 60.5143 58.3623 60.7765 58.0239C61.0387 57.6857 61.1218 57.284 61.0151 56.8696C59.7105 51.8004 55.1094 48.0547 49.6332 48.0547C44.1569 48.0547 39.5558 51.8004 38.2513 56.8696C38.1446 57.2841 38.2277 57.6857 38.4899 58.0239C38.7521 58.3623 39.1204 58.5429 39.5485 58.5429Z" fill="#60B7FF"/>
<path fill-rule="evenodd" clip-rule="evenodd" d="M59.7178 58.5428C60.1457 58.5428 60.5141 58.3622 60.7763 58.0239C61.0385 57.6857 61.1217 57.284 61.0149 56.8696C59.7103 51.8004 55.1092 48.0547 49.633 48.0547C49.1801 48.0547 48.7333 48.0809 48.2936 48.1307C53.1688 48.684 57.1394 52.2198 58.336 56.8696C58.4428 57.284 58.3595 57.6857 58.0974 58.0239C57.8352 58.3622 57.4668 58.5428 57.0388 58.5428H59.7178Z" fill="#41A8FC"/>
<path d="M49.6332 48.0526C52.9151 48.0526 55.5756 45.3921 55.5756 42.1103C55.5756 38.8284 52.9151 36.168 49.6332 36.168C46.3514 36.168 43.6909 38.8284 43.6909 42.1103C43.6909 45.3921 46.3514 48.0526 49.6332 48.0526Z" fill="#F6DCCD"/>
<path fill-rule="evenodd" clip-rule="evenodd" d="M49.6332 36.168C52.915 36.168 55.5754 38.8285 55.5754 42.1103C55.5754 45.3921 52.915 48.0525 49.6332 48.0525C49.3505 48.0525 49.0724 48.0322 48.8002 47.9941C51.6875 47.5891 53.9095 45.1093 53.9095 42.1103C53.9095 39.1112 51.6875 36.6315 48.8002 36.2264C49.0724 36.1881 49.3505 36.168 49.6332 36.168Z" fill="#F1CBBC"/>
<path fill-rule="evenodd" clip-rule="evenodd" d="M2.282 58.5429L22.4514 58.5428C22.8794 58.5428 23.2478 58.3623 23.51 58.0239C23.7722 57.6857 23.8554 57.284 23.7486 56.8696C22.4441 51.8004 17.8429 48.0547 12.3667 48.0547C6.8904 48.0547 2.28935 51.8004 0.984817 56.8696C0.878082 57.2841 0.961227 57.6857 1.22342 58.0239C1.48575 58.3623 1.85403 58.5429 2.282 58.5429Z" fill="#60B7FF"/>
<path fill-rule="evenodd" clip-rule="evenodd" d="M22.4514 58.5428C22.8795 58.5428 23.2478 58.3622 23.51 58.0239C23.7722 57.6857 23.8553 57.284 23.7486 56.8696C22.4441 51.8004 17.8429 48.0547 12.3667 48.0547C11.9137 48.0547 11.4669 48.0809 11.0272 48.1307C15.9025 48.684 19.873 52.2198 21.0697 56.8696C21.1764 57.284 21.0931 57.6857 20.8311 58.0239C20.5689 58.3622 20.2004 58.5428 19.7725 58.5428H22.4514Z" fill="#41A8FC"/>
<path d="M18.2255 43.056C18.7506 39.8168 16.5504 36.7653 13.3112 36.2402C10.072 35.7151 7.02042 37.9153 6.49533 41.1545C5.97023 44.3936 8.17044 47.4452 11.4096 47.9703C14.6488 48.4954 17.7004 46.2952 18.2255 43.056Z" fill="#F6DCCD"/>
<path fill-rule="evenodd" clip-rule="evenodd" d="M12.3668 36.168C15.6486 36.168 18.309 38.8285 18.309 42.1103C18.309 45.3921 15.6485 48.0525 12.3668 48.0525C12.0841 48.0525 11.8061 48.0322 11.5338 47.9941C14.4212 47.5891 16.6431 45.1093 16.6431 42.1103C16.6431 39.1112 14.4212 36.6315 11.5338 36.2264C11.8061 36.1881 12.084 36.168 12.3668 36.168Z" fill="#F1CBBC"/>
<path fill-rule="evenodd" clip-rule="evenodd" d="M20.9153 62.4413L41.0847 62.4412C41.5127 62.4412 41.8811 62.2607 42.1433 61.9223C42.4055 61.5841 42.4887 61.1824 42.3819 60.768C41.0774 55.6989 36.4762 51.9531 31 51.9531C25.5237 51.9531 20.9226 55.6989 19.6181 60.768C19.5114 61.1826 19.5945 61.5841 19.8567 61.9223C20.119 62.2607 20.4873 62.4413 20.9153 62.4413Z" fill="#60B7FF"/>
<path fill-rule="evenodd" clip-rule="evenodd" d="M41.0847 62.4412C41.5127 62.4412 41.8811 62.2606 42.1433 61.9223C42.4055 61.5841 42.4886 61.1824 42.3819 60.768C41.0774 55.6989 36.4762 51.9531 31 51.9531C30.547 51.9531 30.1002 51.9793 29.6605 52.0292C34.5358 52.5824 38.5063 56.1182 39.7031 60.768C39.8098 61.1824 39.7266 61.5841 39.4645 61.9223C39.2023 62.2606 38.8339 62.4412 38.4059 62.4412H41.0847Z" fill="#41A8FC"/>
<path d="M31.0002 51.951C34.282 51.951 36.9425 49.2906 36.9425 46.0087C36.9425 42.7269 34.282 40.0664 31.0002 40.0664C27.7183 40.0664 25.0579 42.7269 25.0579 46.0087C25.0579 49.2906 27.7183 51.951 31.0002 51.951Z" fill="#F6DCCD"/>
<path fill-rule="evenodd" clip-rule="evenodd" d="M31.0001 40.0664C34.2819 40.0664 36.9423 42.7269 36.9423 46.0087C36.9423 49.2905 34.2819 51.9509 31.0001 51.9509C30.7174 51.9509 30.4394 51.9307 30.1671 51.8925C33.0545 51.4874 35.2764 49.0077 35.2764 46.0087C35.2764 43.0096 33.0545 40.53 30.1671 40.1248C30.4394 40.0865 30.7173 40.0664 31.0001 40.0664Z" fill="#F1CBBC"/>
</svg>
