<svg width="16" height="18" viewBox="0 0 16 18" fill="none" xmlns="http://www.w3.org/2000/svg">
<path fill-rule="evenodd" clip-rule="evenodd" d="M3.49999 1.75C3.49999 1.5315 5.75799 0 7.99999 0C10.242 0 12.5 1.5315 12.5 1.75C12.5 2.53 12.417 2.992 12.347 3.2435C12.3005 3.4085 12.146 3.5 11.9745 3.5H4.02549C3.85399 3.5 3.69949 3.4085 3.65299 3.2435C3.58299 2.992 3.49999 2.53 3.49999 1.75ZM7.24999 1.5C7.11738 1.5 6.9902 1.55268 6.89643 1.64645C6.80267 1.74021 6.74999 1.86739 6.74999 2C6.74999 2.13261 6.80267 2.25979 6.89643 2.35355C6.9902 2.44732 7.11738 2.5 7.24999 2.5H8.74999C8.8826 2.5 9.00977 2.44732 9.10354 2.35355C9.19731 2.25979 9.24999 2.13261 9.24999 2C9.24999 1.86739 9.19731 1.74021 9.10354 1.64645C9.00977 1.55268 8.8826 1.5 8.74999 1.5H7.24999ZM4.01899 6.609C2.35399 6.094 2.77399 5.174 3.40899 4.5H12.73C13.238 5.149 13.5105 6.0245 11.975 6.5485C11.9917 6.69683 12 6.84733 12 7C11.9998 7.54163 11.8896 8.07758 11.676 8.57535C11.4625 9.07312 11.1501 9.52233 10.7578 9.89576C10.3654 10.2692 9.90136 10.559 9.39367 10.7478C8.88597 10.9365 8.34524 11.0201 7.80426 10.9936C7.26327 10.9671 6.7333 10.831 6.24649 10.5936C5.75967 10.3561 5.32615 10.0223 4.9722 9.61231C4.61826 9.20233 4.35126 8.72473 4.18741 8.20847C4.02356 7.69222 3.96626 7.14806 4.01899 6.609ZM7.86399 7C9.18499 7 10.209 6.93 10.994 6.808C10.998 6.87133 11 6.93533 11 7C10.9996 7.40037 10.9191 7.79662 10.7633 8.1654C10.6074 8.53418 10.3792 8.86802 10.0923 9.14726C9.8054 9.4265 9.46549 9.64548 9.09261 9.7913C8.71974 9.93712 8.32145 10.0068 7.92121 9.99631C7.52098 9.9858 7.1269 9.89528 6.76219 9.73008C6.39749 9.56489 6.06954 9.32837 5.79767 9.03445C5.52581 8.74054 5.31552 8.39518 5.17921 8.01872C5.0429 7.64227 4.98332 7.24234 5.00399 6.8425C5.73549 6.9435 6.67299 7 7.86399 7ZM12.2085 14.3C11.7563 13.5943 11.1338 13.0138 10.3983 12.6119C9.66288 12.2099 8.83811 11.9995 7.99999 12C7.16152 11.9994 6.33638 12.2098 5.60063 12.6119C4.86489 13.0141 4.24221 13.5949 3.78999 14.301C3.62178 14.0428 3.36412 13.8558 3.06649 13.776L2.10049 13.5175C1.78031 13.4317 1.43914 13.4765 1.15203 13.6422C0.864917 13.8079 0.655374 14.0808 0.569488 14.401L0.181488 15.85C0.138994 16.0086 0.128151 16.174 0.14958 16.3367C0.171009 16.4995 0.224289 16.6564 0.306378 16.7986C0.388466 16.9408 0.497755 17.0654 0.628004 17.1653C0.758253 17.2652 0.906911 17.3385 1.06549 17.381L2.03099 17.64C2.19342 17.6835 2.36295 17.6938 2.52945 17.6703C2.69595 17.6467 2.85599 17.5898 2.99999 17.503C3.00039 17.6356 3.05345 17.7626 3.1475 17.8561C3.24154 17.9496 3.36888 18.0019 3.50149 18.0015C3.6341 18.0011 3.76112 17.948 3.8546 17.854C3.94809 17.7599 4.00039 17.6326 3.99999 17.5V17C3.99999 16.8093 4.01299 16.6222 4.03899 16.4385L6.64099 17.136C6.76177 17.3945 6.95378 17.6132 7.1945 17.7665C7.43521 17.9197 7.71464 18.0011 7.99999 18.0011C8.28533 18.0011 8.56476 17.9197 8.80548 17.7665C9.04619 17.6132 9.23821 17.3945 9.35899 17.136L11.961 16.4385C11.9867 16.6222 11.9997 16.8093 12 17V17.5C11.9993 17.6326 12.0514 17.76 12.1447 17.8543C12.238 17.9485 12.3649 18.0018 12.4975 18.0025C12.6301 18.0032 12.7575 17.9511 12.8518 17.8578C12.946 17.7645 12.9993 17.6376 13 17.505C13.28 17.673 13.626 17.7315 13.9665 17.64L14.9325 17.3815C15.0911 17.339 15.2397 17.2657 15.37 17.1658C15.5002 17.0659 15.6095 16.9413 15.6916 16.7991C15.7737 16.6569 15.827 16.5 15.8484 16.3372C15.8698 16.1745 15.859 16.0091 15.8165 15.8505L15.428 14.4015C15.3421 14.0813 15.1326 13.8084 14.8454 13.6427C14.5583 13.477 14.2172 13.4322 13.897 13.518L12.931 13.7765C12.634 13.8561 12.3768 14.0428 12.2085 14.3ZM4.30149 15.473C4.57174 14.8199 5.01 14.25 5.57176 13.8211C6.13353 13.3922 6.79879 13.1196 7.49999 13.031V15.0855C7.27577 15.1647 7.0736 15.2961 6.91016 15.4689C6.74673 15.6416 6.6267 15.8507 6.55999 16.079L4.30149 15.473ZM11.6985 15.473C11.4282 14.8199 10.99 14.25 10.4282 13.8211C9.86645 13.3922 9.20119 13.1196 8.49999 13.031V15.0855C8.95199 15.2455 9.30499 15.6155 9.43999 16.079L11.6985 15.473ZM7.99999 17C8.1326 17 8.25977 16.9473 8.35354 16.8536C8.44731 16.7598 8.49999 16.6326 8.49999 16.5C8.49999 16.3674 8.44731 16.2402 8.35354 16.1464C8.25977 16.0527 8.1326 16 7.99999 16C7.86738 16 7.7402 16.0527 7.64643 16.1464C7.55267 16.2402 7.49999 16.3674 7.49999 16.5C7.49999 16.6326 7.55267 16.7598 7.64643 16.8536C7.7402 16.9473 7.86738 17 7.99999 17Z" fill="#F50AFE"/>
</svg>
