<svg width="28" height="29" viewBox="0 0 28 29" fill="none" xmlns="http://www.w3.org/2000/svg">
<path d="M26.2325 11.3525C25.7612 10.86 25.2738 10.3525 25.09 9.90625C24.92 9.4975 24.91 8.82 24.9 8.16375C24.8813 6.94375 24.8612 5.56125 23.9 4.6C22.9387 3.63875 21.5562 3.61875 20.3363 3.6C19.68 3.59 19.0025 3.58 18.5938 3.41C18.1488 3.22625 17.64 2.73875 17.1475 2.2675C16.285 1.43875 15.305 0.5 14 0.5C12.695 0.5 11.7162 1.43875 10.8525 2.2675C10.36 2.73875 9.8525 3.22625 9.40625 3.41C9 3.58 8.32 3.59 7.66375 3.6C6.44375 3.61875 5.06125 3.63875 4.1 4.6C3.13875 5.56125 3.125 6.94375 3.1 8.16375C3.09 8.82 3.08 9.4975 2.91 9.90625C2.72625 10.3512 2.23875 10.86 1.7675 11.3525C0.93875 12.215 0 13.195 0 14.5C0 15.805 0.93875 16.7837 1.7675 17.6475C2.23875 18.14 2.72625 18.6475 2.91 19.0938C3.08 19.5025 3.09 20.18 3.1 20.8363C3.11875 22.0562 3.13875 23.4387 4.1 24.4C5.06125 25.3612 6.44375 25.3813 7.66375 25.4C8.32 25.41 8.9975 25.42 9.40625 25.59C9.85125 25.7738 10.36 26.2612 10.8525 26.7325C11.715 27.5613 12.695 28.5 14 28.5C15.305 28.5 16.2837 27.5613 17.1475 26.7325C17.64 26.2612 18.1475 25.7738 18.5938 25.59C19.0025 25.42 19.68 25.41 20.3363 25.4C21.5562 25.3813 22.9387 25.3612 23.9 24.4C24.8612 23.4387 24.8813 22.0562 24.9 20.8363C24.91 20.18 24.92 19.5025 25.09 19.0938C25.2738 18.6488 25.7612 18.14 26.2325 17.6475C27.0613 16.785 28 15.805 28 14.5C28 13.195 27.0613 12.2162 26.2325 11.3525ZM19.7075 12.2075L12.7075 19.2075C12.6146 19.3005 12.5043 19.3742 12.3829 19.4246C12.2615 19.4749 12.1314 19.5008 12 19.5008C11.8686 19.5008 11.7385 19.4749 11.6171 19.4246C11.4957 19.3742 11.3854 19.3005 11.2925 19.2075L8.2925 16.2075C8.19959 16.1146 8.12589 16.0043 8.07561 15.8829C8.02532 15.7615 7.99944 15.6314 7.99944 15.5C7.99944 15.3686 8.02532 15.2385 8.07561 15.1171C8.12589 14.9957 8.19959 14.8854 8.2925 14.7925C8.48014 14.6049 8.73464 14.4994 9 14.4994C9.1314 14.4994 9.2615 14.5253 9.3829 14.5756C9.50429 14.6259 9.61459 14.6996 9.7075 14.7925L12 17.0863L18.2925 10.7925C18.3854 10.6996 18.4957 10.6259 18.6171 10.5756C18.7385 10.5253 18.8686 10.4994 19 10.4994C19.1314 10.4994 19.2615 10.5253 19.3829 10.5756C19.5043 10.6259 19.6146 10.6996 19.7075 10.7925C19.8004 10.8854 19.8741 10.9957 19.9244 11.1171C19.9747 11.2385 20.0006 11.3686 20.0006 11.5C20.0006 11.6314 19.9747 11.7615 19.9244 11.8829C19.8741 12.0043 19.8004 12.1146 19.7075 12.2075Z" fill="#18C4B8"/>
</svg>
