<svg width="28" height="24" viewBox="0 0 28 24" fill="none" xmlns="http://www.w3.org/2000/svg">
<path d="M4.2 10.5C5.74437 10.5 7 9.15469 7 7.5C7 5.84531 5.74437 4.5 4.2 4.5C2.65563 4.5 1.4 5.84531 1.4 7.5C1.4 9.15469 2.65563 10.5 4.2 10.5ZM23.8 10.5C25.3444 10.5 26.6 9.15469 26.6 7.5C26.6 5.84531 25.3444 4.5 23.8 4.5C22.2556 4.5 21 5.84531 21 7.5C21 9.15469 22.2556 10.5 23.8 10.5ZM25.2 12H22.4C21.63 12 20.9344 12.3328 20.4269 12.8719C22.19 13.9078 23.4412 15.7781 23.7125 18H26.6C27.3744 18 28 17.3297 28 16.5V15C28 13.3453 26.7444 12 25.2 12ZM14 12C16.7081 12 18.9 9.65156 18.9 6.75C18.9 3.84844 16.7081 1.5 14 1.5C11.2919 1.5 9.1 3.84844 9.1 6.75C9.1 9.65156 11.2919 12 14 12ZM17.36 13.5H16.9969C16.0869 13.9688 15.0763 14.25 14 14.25C12.9237 14.25 11.9175 13.9688 11.0031 13.5H10.64C7.8575 13.5 5.6 15.9188 5.6 18.9V20.25C5.6 21.4922 6.54063 22.5 7.7 22.5H20.3C21.4594 22.5 22.4 21.4922 22.4 20.25V18.9C22.4 15.9188 20.1425 13.5 17.36 13.5ZM7.57313 12.8719C7.06563 12.3328 6.37 12 5.6 12H2.8C1.25563 12 0 13.3453 0 15V16.5C0 17.3297 0.625625 18 1.4 18H4.28312C4.55875 15.7781 5.81 13.9078 7.57313 12.8719Z" fill="#344BFD"/>
</svg>
